<?xml version="1.0" standalone="no"?>
<!DOCTYPE svg PUBLIC "-//W3C//DTD SVG 20010904//EN"
 "http://www.w3.org/TR/2001/REC-SVG-20010904/DTD/svg10.dtd">
<svg version="1.0" xmlns="http://www.w3.org/2000/svg"
 width="64.000000pt" height="64.000000pt" viewBox="0 0 64.000000 64.000000"
 preserveAspectRatio="xMidYMid meet">

<g transform="translate(0.000000,64.000000) scale(0.100000,-0.100000)"
fill="#000000" stroke="none">
<path d="M0 605 c0 -19 4 -35 9 -35 6 0 10 -99 10 -250 0 -149 -4 -250 -10
-250 -5 0 -9 -16 -9 -35 0 -33 2 -35 35 -35 19 0 35 4 35 10 0 6 76 9 201 9
135 -1 204 2 212 10 8 8 -7 11 -56 11 -37 0 -76 6 -87 12 -16 10 -24 10 -40 0
-12 -7 -59 -12 -125 -12 -87 0 -105 3 -105 15 0 8 -7 15 -15 15 -12 0 -15 18
-15 105 0 66 5 113 12 125 10 16 10 24 0 40 -7 12 -12 59 -12 125 0 87 3 105
15 105 8 0 15 6 15 14 0 9 13 16 33 19 l32 4 -32 1 c-22 1 -33 7 -33 17 0 10
-11 15 -35 15 -33 0 -35 -2 -35 -35z m50 0 c0 -8 -7 -15 -15 -15 -8 0 -15 7
-15 15 0 8 7 15 15 15 8 0 15 -7 15 -15z m0 -570 c0 -8 -7 -15 -15 -15 -8 0
-15 7 -15 15 0 8 7 15 15 15 8 0 15 -7 15 -15z"/>
<path d="M570 625 c0 -12 -19 -15 -110 -15 -67 0 -110 4 -110 10 0 6 -13 10
-30 10 -16 0 -30 -4 -30 -10 0 -5 -30 -11 -67 -12 l-68 -2 60 -3 c33 -2 70 -9
83 -15 18 -9 28 -9 42 0 12 7 60 12 125 12 87 0 105 -3 105 -15 0 -8 7 -15 15
-15 12 0 15 -18 15 -105 0 -66 -5 -113 -12 -125 -10 -16 -10 -24 0 -40 7 -12
12 -59 12 -125 0 -87 -3 -105 -15 -105 -8 0 -15 -7 -15 -15 0 -9 -10 -15 -26
-15 -14 0 -23 -4 -19 -10 3 -6 15 -10 26 -10 10 0 19 -4 19 -10 0 -5 16 -10
35 -10 33 0 35 2 35 35 0 19 -4 35 -10 35 -5 0 -9 98 -9 250 0 152 4 250 9
250 6 0 10 16 10 35 0 33 -2 35 -35 35 -24 0 -35 -5 -35 -15z m50 -20 c0 -8
-7 -15 -15 -15 -8 0 -15 7 -15 15 0 8 7 15 15 15 8 0 15 -7 15 -15z m0 -570
c0 -8 -7 -15 -15 -15 -8 0 -15 7 -15 15 0 8 7 15 15 15 8 0 15 -7 15 -15z"/>
<path d="M240 520 c-15 -29 -140 -390 -140 -406 0 -10 16 -14 64 -14 68 0 77
5 93 55 9 28 13 30 63 30 50 0 54 -2 63 -30 16 -50 25 -55 93 -55 48 0 64 4
64 14 0 16 -125 377 -140 406 -9 17 -21 20 -80 20 -59 0 -71 -3 -80 -20z m102
-55 c21 -55 25 -61 33 -53 3 3 -3 29 -15 57 l-20 52 22 -3 c20 -3 32 -27 90
-193 37 -104 67 -193 67 -197 1 -5 -7 -8 -18 -8 -15 0 -28 27 -66 135 -26 74
-51 132 -56 130 -4 -3 12 -62 37 -131 24 -69 44 -127 44 -130 0 -2 -10 -4 -23
-4 -18 0 -26 9 -37 42 l-15 43 -95 0 c-86 0 -95 -2 -99 -20 -3 -17 -1 -17 12
-6 9 7 23 11 31 9 24 -5 -7 -68 -34 -68 -12 0 -19 4 -15 9 3 5 1 12 -4 15 -5
3 -11 -1 -15 -9 -5 -13 -46 -23 -46 -11 0 8 130 377 136 387 3 6 20 9 36 7 26
-3 33 -10 50 -53z"/>
<path d="M247 363 c-19 -54 -33 -101 -30 -105 6 -10 141 -10 146 0 5 10 -64
202 -73 202 -4 0 -23 -44 -43 -97z m57 25 c9 -34 -24 -118 -46 -118 -23 0 -23
2 4 78 23 67 32 75 42 40z m35 -105 c1 -7 -8 -13 -19 -13 -23 0 -25 12 -8 43
11 21 11 21 19 2 4 -11 8 -26 8 -32z"/>
</g>
</svg>
